# xmcd
#
# Track frame offsets:
#	150
#	16135
#	31310
#	43821
#	61301
#	76318
#	91536
#	105498
#	118743
#	138391
#	150069
#	167866
#
# Disc length: 2468 seconds
#
# Revision: 0
# Processed by: cddbd v1.4PL0 Copyright (c) Steve Scherf et al.
# Submitted via: EasyCDDAExtractor 4.6.9.1
#
DISCID=8409a20c
DTITLE=NICOLE LEBLANC - Mon Ami est Devenu L'Homme De Ma Vie
DYEAR=1900
DGENRE=
TTITLE0=Mon Ami Est Devenu L'Homme De Ma Vie
TTITLE1=Sur Ce Vieux Rocher Blanc
TTITLE2=L Enfant Do
TTITLE3=Ces Chaines D'Amitier
TTITLE4=Le Festival
TTITLE5=Maple Sugar
TTITLE6=Faux Mieux S'en Aller
TTITLE7=La Fete Des Graduer
TTITLE8=CHER PAPA
TTITLE9=Jamais Je'N'T'Oublirai
TTITLE10=Cette Triste Journer D'Automne
TTITLE11=Reel Des Benevoles
EXTD=
EXTT0=
EXTT1=
EXTT2=
EXTT3=
EXTT4=
EXTT5=
EXTT6=
EXTT7=
EXTT8=
EXTT9=
EXTT10=
EXTT11=
PLAYORDER=
